<svg width="651" height="501" viewBox="0 0 651 501" fill="none" xmlns="http://www.w3.org/2000/svg">
<g clip-path="url(#clip0)">
<path opacity="0.24" d="M648.81 340.6C647.942 348.015 646.663 355.376 644.98 362.65C642.04 375.14 637.5 387.16 630.37 397.65C629.62 398.75 628.84 399.84 628.02 400.9C606.81 428.91 569.66 439.02 534.81 443.13C477.55 449.9 419.63 445.24 361.98 446.03C269.47 447.24 176.46 462.44 84.85 449.28C61.08 445.91 33.63 437.21 18.31 417.36C16.0042 414.357 14.0105 411.127 12.36 407.72C5.50995 393.66 1.93995 376.47 0.609951 358.72C-0.881622 335.834 0.580404 312.852 4.95995 290.34C13.11 248.75 34.57 209.27 67.43 182.48C94.25 160.59 128.13 147.2 150.49 120.8C173.49 93.66 182.1 55.28 209.43 32.52C223.49 20.78 241.23 14.39 258.94 9.69001C292.38 0.800013 327.63 -2.95999 361.74 2.69001C395.85 8.34001 428.95 24 452.29 49.57C484.52 84.78 497.48 136.98 537.04 163.73C555.49 176.19 577.97 181.63 596.69 193.73C619.69 208.61 635.62 232.93 643.57 259.14C651.52 285.35 652.06 313.38 648.81 340.6Z" fill="#6524BB"/>
<path d="M186.36 335.39C186.56 336.09 186.73 336.97 186.19 337.45C185.966 337.6 185.714 337.702 185.45 337.752C185.185 337.802 184.913 337.798 184.65 337.74C178.788 337.172 172.97 336.227 167.23 334.91C166.87 334.905 166.515 334.821 166.191 334.664C165.866 334.507 165.58 334.281 165.353 334.002C165.125 333.722 164.961 333.397 164.873 333.048C164.784 332.698 164.773 332.334 164.84 331.98C164.589 322.819 164.96 313.651 165.95 304.54C166.5 299.49 167.21 291.72 171.55 288.28C176.84 284.1 178.5 290.02 179 294.35C180.59 308.29 182.42 321.91 186.36 335.39Z" fill="#6524BB"/>
<path d="M186.36 335.39C186.56 336.09 186.73 336.97 186.19 337.45C185.966 337.6 185.714 337.702 185.45 337.752C185.185 337.802 184.913 337.798 184.65 337.74C178.788 337.172 172.97 336.227 167.23 334.91C166.87 334.905 166.515 334.821 166.191 334.664C165.866 334.507 165.58 334.281 165.353 334.002C165.125 333.722 164.961 333.397 164.873 333.048C164.784 332.698 164.773 332.334 164.84 331.98C164.589 322.819 164.96 313.651 165.95 304.54C166.5 299.49 167.21 291.72 171.55 288.28C176.84 284.1 178.5 290.02 179 294.35C180.59 308.29 182.42 321.91 186.36 335.39Z" fill="url(#paint0_linear)"/>
<path d="M396.4 155.01C393.98 152.93 391.31 150.75 388.12 150.52C385.12 150.31 382.17 151.97 380.12 154.22C378.197 156.579 376.643 159.215 375.51 162.04C374.46 164.053 373.721 166.215 373.32 168.45C372.88 171.81 373.98 175.17 374.26 178.55C374.41 180.43 374.32 182.39 375.11 184.1C375.598 185.057 376.292 185.894 377.143 186.549C377.994 187.205 378.98 187.663 380.03 187.89C382.136 188.33 384.317 188.241 386.38 187.63C387.129 187.497 387.824 187.15 388.38 186.63C389.62 185.28 388.75 183.09 389.22 181.32C389.501 180.566 389.94 179.88 390.507 179.309C391.075 178.739 391.758 178.296 392.51 178.01C394.013 177.444 395.465 176.752 396.85 175.94C398.306 174.906 399.318 173.359 399.68 171.61C400.02 169.91 399.75 168.03 400.59 166.51C400.93 165.89 401.44 165.37 401.79 164.75C401.991 164.46 402.111 164.123 402.139 163.772C402.167 163.42 402.102 163.068 401.95 162.75C401.681 162.393 401.341 162.097 400.95 161.88C399.331 160.73 398.198 159.019 397.77 157.08C397.694 156.66 397.533 156.26 397.298 155.904C397.062 155.549 396.757 155.244 396.4 155.01Z" fill="url(#paint1_linear)"/>
<path d="M384.64 171.58C383.057 170.784 381.66 169.663 380.54 168.29C379.87 168.979 379.483 169.895 379.455 170.856C379.427 171.817 379.761 172.753 380.39 173.48C380.649 173.704 380.863 173.976 381.02 174.28C381.088 174.493 381.122 174.716 381.12 174.94L381.31 181.67C381.31 182.55 381.06 183.76 380.17 183.73C379.84 183.682 379.531 183.54 379.28 183.32C377.874 182.366 376.236 181.813 374.54 181.72C373.978 181.735 373.417 181.657 372.88 181.49C372.393 181.247 371.961 180.906 371.61 180.49L368.81 177.58C368.425 177.236 368.124 176.808 367.93 176.33C367.815 175.827 367.815 175.303 367.93 174.8L368.93 167.9C369.057 166.512 369.377 165.149 369.88 163.85C370.385 162.82 371.061 161.883 371.88 161.08C373.8 159.08 376.5 157.61 379.23 158.01C380.479 158.199 381.62 158.826 382.449 159.779C383.279 160.731 383.744 161.947 383.76 163.21C383.645 166.028 383.941 168.848 384.64 171.58Z" fill="#606161"/>
<path d="M375.04 139.56C370.7 139.48 365.94 139.56 362.61 142.33C358.77 145.55 358.23 151.43 359.73 156.21C360.89 159.89 363.08 163.48 362.58 167.31C362.22 170.08 360.47 172.85 361.41 175.48C362.23 177.78 364.96 178.97 367.41 178.69C369.829 178.246 372.055 177.074 373.79 175.33C379.18 170.54 382.95 163.74 389.4 160.5C394.13 158.11 404.88 153.82 398.17 147.13C392.16 141.15 383.04 139.7 375.04 139.56Z" fill="#6524BB"/>
<path d="M375.04 139.56C370.7 139.48 365.94 139.56 362.61 142.33C358.77 145.55 358.23 151.43 359.73 156.21C360.89 159.89 363.08 163.48 362.58 167.31C362.22 170.08 360.47 172.85 361.41 175.48C362.23 177.78 364.96 178.97 367.41 178.69C369.829 178.246 372.055 177.074 373.79 175.33C379.18 170.54 382.95 163.74 389.4 160.5C394.13 158.11 404.88 153.82 398.17 147.13C392.16 141.15 383.04 139.7 375.04 139.56Z" fill="url(#paint2_linear)"/>
<path d="M426.74 240.45C428.05 240.328 429.366 240.622 430.5 241.29C431.328 242.01 431.908 242.972 432.16 244.04C433.47 248.3 432.87 252.89 432.16 257.29C431.1 263.85 432.03 274.41 430.56 280.88C430.08 282.99 427.28 281.21 425.56 282.57C423.16 284.5 419.63 283.81 416.71 284.78L415.71 261.57C415.71 260.84 415.56 259.97 414.91 259.65C414.565 259.508 414.186 259.47 413.82 259.54C409.681 259.891 405.586 260.638 401.59 261.77C398.7 262.59 395.76 263.67 393.64 265.77C389.79 269.65 389.64 275.77 389.25 281.18C388.295 293.278 384.642 305.009 378.56 315.51C374.216 315.5 369.886 315.01 365.65 314.05C365.58 311.9 366.78 309.95 367.55 307.94C368.89 304.47 368.95 300.66 368.82 296.94C368.54 288.68 367.38 280.44 367.57 272.17C367.76 263.9 369.4 255.39 374.16 248.63C379.16 241.56 388.05 236.86 396.73 238.63C406.67 240.68 416.63 240.32 426.74 240.45Z" fill="#606161"/>
<path d="M426.74 240.45C428.05 240.328 429.366 240.622 430.5 241.29C431.328 242.01 431.908 242.972 432.16 244.04C433.47 248.3 432.87 252.89 432.16 257.29C431.1 263.85 431.85 275.69 430.37 282.16C429.89 284.27 427.28 281.21 425.59 282.57C423.19 284.5 419.66 283.81 416.74 284.78L415.74 261.57C415.74 260.84 415.59 259.97 414.94 259.65C414.595 259.508 414.216 259.47 413.85 259.54C409.711 259.891 405.616 260.638 401.62 261.77C398.73 262.59 395.79 263.67 393.67 265.77C389.82 269.65 389.67 275.77 389.28 281.18C388.325 293.278 384.672 305.009 378.59 315.51C374.246 315.5 369.916 315.01 365.68 314.05C365.61 311.9 366.81 309.95 367.58 307.94C368.92 304.47 368.98 300.66 368.85 296.94C368.57 288.68 367.41 280.44 367.6 272.17C367.79 263.9 369.43 255.39 374.19 248.63C379.19 241.56 388.08 236.86 396.76 238.63C406.67 240.68 416.63 240.32 426.74 240.45Z" fill="url(#paint3_linear)"/>
<path d="M431.81 278.75C432.271 278.684 432.742 278.732 433.18 278.89C434.03 279.28 434.29 280.34 434.45 281.26C435.911 290.008 436.719 298.852 436.87 307.72C438.648 306.061 440.535 304.524 442.52 303.12C443.354 302.437 444.343 301.969 445.4 301.76C446.098 301.715 446.798 301.827 447.447 302.088C448.096 302.35 448.678 302.753 449.15 303.27C450.088 304.312 450.848 305.501 451.4 306.79C451.897 307.563 452.086 308.494 451.93 309.4C451.696 309.993 451.31 310.514 450.81 310.91C442.814 318.171 433.494 323.824 423.36 327.56C422.28 323.07 423.24 318.35 422.89 313.75C422.37 306.87 419.04 300.66 416.61 294.33C415.51 291.44 414.16 288.11 414.16 284.96C414.16 282.19 415.88 281.2 418.37 280.63C422.789 279.627 427.285 278.998 431.81 278.75Z" fill="#6524BB"/>
<path d="M381.96 311.06C383.888 319.726 384.132 328.682 382.68 337.44C382.29 339.79 382 342.7 383.96 344.05C385.39 345.05 387.31 344.62 389.04 344.77C391.073 345.028 392.922 346.078 394.185 347.692C395.447 349.307 396.02 351.355 395.78 353.39C395.729 354.024 395.448 354.618 394.99 355.06C394.48 355.407 393.876 355.589 393.26 355.58C383.16 356.56 373.03 357.163 362.87 357.39C361.94 357.39 360.87 357.34 360.37 356.56C360.161 356.149 360.065 355.69 360.09 355.23C359.65 343.3 358.09 330.23 359.57 318.39C360.88 307.85 374.35 311.02 381.96 311.06Z" fill="#6524BB"/>
<path d="M431.81 278.75C432.271 278.684 432.742 278.732 433.18 278.89C434.03 279.28 434.29 280.34 434.45 281.26C435.911 290.008 436.719 298.852 436.87 307.72C438.648 306.061 440.535 304.524 442.52 303.12C443.354 302.437 444.343 301.969 445.4 301.76C446.098 301.715 446.798 301.827 447.447 302.088C448.096 302.35 448.678 302.753 449.15 303.27C450.088 304.312 450.848 305.501 451.4 306.79C451.897 307.563 452.086 308.494 451.93 309.4C451.696 309.993 451.31 310.514 450.81 310.91C442.814 318.171 433.494 323.824 423.36 327.56C422.28 323.07 423.24 318.35 422.89 313.75C422.37 306.87 419.04 300.66 416.61 294.33C415.51 291.44 414.16 288.11 414.16 284.96C414.16 282.19 415.88 281.2 418.37 280.63C422.789 279.627 427.285 278.998 431.81 278.75Z" fill="url(#paint4_linear)"/>
<path d="M381.96 311.06C383.888 319.726 384.132 328.682 382.68 337.44C382.29 339.79 382 342.7 383.96 344.05C385.39 345.05 387.31 344.62 389.04 344.77C391.073 345.028 392.922 346.078 394.185 347.692C395.447 349.307 396.02 351.355 395.78 353.39C395.729 354.024 395.448 354.618 394.99 355.06C394.48 355.407 393.876 355.589 393.26 355.58C383.16 356.56 373.03 357.163 362.87 357.39C361.94 357.39 360.87 357.34 360.37 356.56C360.161 356.149 360.065 355.69 360.09 355.23C359.65 343.3 358.09 330.23 359.57 318.39C360.88 307.85 374.35 311.02 381.96 311.06Z" fill="url(#paint5_linear)"/>
<path d="M401.53 178.43C404.97 175.62 407.33 171.71 409.21 167.68C412.693 169.413 415.922 171.613 418.81 174.22C419.26 174.504 419.586 174.946 419.723 175.46C419.86 175.974 419.798 176.52 419.55 176.99C418.048 181.452 415.266 185.374 411.552 188.267C407.837 191.159 403.354 192.896 398.66 193.26C395.38 193.45 391.84 192.84 389.47 190.56C387.41 188.56 386.09 183.23 389.38 181.81C390.81 181.19 393.92 182.03 395.71 181.52C397.838 180.892 399.818 179.841 401.53 178.43V178.43Z" fill="#6524BB"/>
<path d="M401.53 178.43C404.97 175.62 407.33 171.71 409.21 167.68C412.693 169.413 415.922 171.613 418.81 174.22C419.26 174.504 419.586 174.946 419.723 175.46C419.86 175.974 419.798 176.52 419.55 176.99C418.048 181.452 415.266 185.374 411.552 188.267C407.837 191.159 403.354 192.896 398.66 193.26C395.38 193.45 391.84 192.84 389.47 190.56C387.41 188.56 386.09 183.23 389.38 181.81C390.81 181.19 393.92 182.03 395.71 181.52C397.838 180.892 399.818 179.841 401.53 178.43V178.43Z" fill="url(#paint6_linear)"/>
<path d="M412.81 158.47C412.88 156.47 413.02 154.26 414.44 152.84C415.86 151.42 417.97 151.27 419.93 151.17L424.44 150.93C425.273 150.804 426.125 150.936 426.88 151.31C427.88 151.95 428.1 153.31 428.25 154.43C428.47 156.24 428.67 158.18 427.82 159.8C427.057 160.959 426.096 161.975 424.98 162.8C423.324 164.268 421.916 165.993 420.81 167.91C419.73 169.82 418.91 171.91 417.33 173.46C417.007 173.809 416.618 174.091 416.186 174.289C415.753 174.486 415.285 174.595 414.81 174.61C414.121 174.511 413.483 174.192 412.99 173.7C412.498 173.207 412.179 172.569 412.08 171.88C411.69 169.88 412.47 167.55 412.53 165.5C412.62 163.16 412.7 160.82 412.81 158.47Z" fill="url(#paint7_linear)"/>
<path d="M411.44 153.27H398.79V157.29H411.44V153.27Z" fill="#6524BB"/>
<path d="M411.44 153.27H398.79V157.29H411.44V153.27Z" fill="url(#paint8_linear)"/>
<path d="M433.32 150.21H410.62V159.12H433.32V150.21Z" fill="#6524BB"/>
<path d="M492.63 147.36H433.18V163.07H492.63V147.36Z" fill="#6524BB"/>
<path d="M433.32 150.21H410.62V159.12H433.32V150.21Z" fill="url(#paint9_linear)"/>
<path d="M433.15 147.36H492.61V163.08H433.15" fill="url(#paint10_linear)"/>
<path d="M499.45 249.5C488.9 247.67 479.78 257.5 475.94 267.5C472.1 277.5 471.1 288.7 465.24 297.65C459.56 306.33 450.11 311.65 441.03 316.65C426.03 324.94 410.72 333.33 394.03 337.26C380.87 340.36 367.18 339.7 353.69 340.6C193.13 351.29 132.99 330.6 84.6899 299.27C91.7172 321.16 100.234 342.543 110.18 363.27C116.3 376 123.13 388.72 133.36 398.47C145.01 409.58 160.31 416.06 175.74 420.69C235.61 438.64 299.74 431.52 361.84 424.23C380.84 422.01 400.04 419.72 417.84 412.8C453.01 399.15 480.04 367.31 489.93 330.91C493.11 319.19 494.64 307.09 496.15 295.04C498 279.99 497.56 264.52 499.45 249.5Z" fill="#6524BB"/>
<path d="M499.44 249.5C497.56 264.5 497.99 279.97 496.11 295.01C495.8 297.6 495.45 300.18 495.11 302.76C493.998 312.249 492.254 321.653 489.89 330.91C484.521 350.407 474.548 368.33 460.81 383.17C448.915 396.182 434.209 406.308 417.81 412.78C399.99 419.71 380.81 421.98 361.81 424.21C299.74 431.5 235.59 438.62 175.7 420.65C160.27 416.03 145 409.56 133.33 398.44C131.88 397.03 130.47 395.58 129.18 394.06C121.18 385.06 115.39 374.16 110.18 363.23C103.37 349.02 100.51 343.14 97.1801 333.78C95.6601 329.51 94.0101 324.5 91.8201 317.69C140.15 348.98 289.01 351.84 323.39 351.88C336.91 351.88 381 340.4 394.16 337.27C410.89 333.35 426.16 324.97 441.16 316.67C450.21 311.67 459.68 306.33 465.36 297.67C471.2 288.74 472.22 277.53 476.05 267.55C479.88 257.57 488.91 247.66 499.44 249.5Z" fill="url(#paint11_linear)"/>
<path d="M135.05 276.64C138.9 268.54 144.23 260.64 152.25 256.64C157.99 253.77 164.63 253.17 171.04 253.57C176.53 253.92 182.6 255.36 185.6 259.98C187.77 263.34 187.95 267.89 190.78 270.72C193.01 272.95 196.62 273.79 198.09 276.58C199.88 279.98 197.2 284.29 193.71 285.87C190.22 287.45 186.21 287.21 182.38 287.44C180.74 287.54 178.94 287.83 177.92 289.11C177.203 290.21 176.853 291.509 176.92 292.82L175.04 329.04C175.108 330.554 174.733 332.056 173.96 333.36C172.12 335.83 168.33 335.28 165.36 334.47L135.64 326.39C132.55 325.55 129.35 324.65 126.92 322.57C121.71 318.1 125.77 308.41 126.78 302.57C128.346 293.591 131.128 284.868 135.05 276.64V276.64Z" fill="#6524BB"/>
<path d="M140.56 278.72C138.45 286 136.45 294.28 140.34 300.79C140.655 301.42 141.154 301.939 141.77 302.28C142.392 302.51 143.069 302.541 143.71 302.37C146.436 301.71 148.793 300.004 150.27 297.62C151.725 295.247 152.697 292.61 153.13 289.86C154.41 283.25 154.13 276.4 155.63 269.86C156.4 266.4 157.95 262.73 161.15 261.21C159.366 261.143 157.589 261.456 155.935 262.129C154.282 262.801 152.791 263.817 151.56 265.11C149.12 267.78 147.38 271 145.32 273.96C143.68 276.29 141.35 275.97 140.56 278.72Z" fill="#6524BB"/>
<path d="M120.58 292.81C120.04 288.92 119.44 284.75 116.75 281.91C115.444 280.588 113.784 279.67 111.97 279.267C110.155 278.865 108.263 278.994 106.52 279.64C104.798 280.339 103.303 281.5 102.199 282.994C101.094 284.489 100.423 286.259 100.26 288.11C100.197 288.587 100.242 289.072 100.39 289.53C100.79 290.53 101.96 291.01 102.84 291.68C105.58 293.74 105.51 297.76 106.26 301.1C107.1 304.81 109.19 308.1 111.26 311.26C113.71 314.92 116.72 318.82 121.06 319.51C127.48 320.51 124.48 314.3 123.59 311.18C121.98 305.3 121.41 298.84 120.58 292.81Z" fill="#6524BB"/>
<path d="M135.05 276.64C138.9 268.54 144.23 260.64 152.25 256.64C157.99 253.77 164.63 253.17 171.04 253.57C176.53 253.92 182.6 255.36 185.6 259.98C187.77 263.34 187.95 267.89 190.78 270.72C193.01 272.95 196.62 273.79 198.09 276.58C199.88 279.98 197.2 284.29 193.71 285.87C190.22 287.45 186.21 287.21 182.38 287.44C180.74 287.54 178.94 287.83 177.92 289.11C177.203 290.21 176.853 291.509 176.92 292.82L175.04 329.04C175.108 330.554 174.733 332.056 173.96 333.36C172.12 335.83 168.33 335.28 165.36 334.47L135.64 326.39C132.55 325.55 129.35 324.65 126.92 322.57C121.71 318.1 125.77 308.41 126.78 302.57C128.346 293.591 131.128 284.868 135.05 276.64V276.64Z" fill="url(#paint12_linear)"/>
<path d="M140.18 281.33C138.08 288.62 136.08 296.9 139.97 303.41C140.28 304.041 140.78 304.558 141.4 304.89C142.022 305.12 142.7 305.152 143.34 304.98C146.067 304.322 148.424 302.615 149.9 300.23C151.345 297.856 152.316 295.224 152.76 292.48C154.04 285.87 153.76 279.01 155.25 272.48C156.03 269.02 157.57 265.35 160.78 263.83C158.996 263.763 157.217 264.077 155.564 264.751C153.91 265.426 152.419 266.444 151.19 267.74C148.75 270.4 147.01 273.62 144.94 276.59C143.31 278.91 140.98 278.58 140.18 281.33Z" fill="url(#paint13_linear)"/>
<path d="M138.38 278.41C135.32 285.35 132.25 293.29 135.23 300.26C135.462 300.922 135.887 301.5 136.45 301.92C137.035 302.23 137.702 302.353 138.36 302.27C141.152 301.979 143.718 300.6 145.5 298.43C147.253 296.27 148.565 293.786 149.36 291.12C151.51 284.74 152.16 277.91 154.49 271.6C155.72 268.27 157.74 264.84 161.12 263.76C159.365 263.46 157.566 263.536 155.842 263.982C154.118 264.429 152.509 265.236 151.12 266.35C148.35 268.67 146.2 271.63 143.76 274.3C141.81 276.41 139.53 275.78 138.38 278.41Z" fill="white"/>
<path d="M120.58 292.81C120.04 288.92 119.44 284.75 116.75 281.91C115.444 280.588 113.784 279.67 111.97 279.267C110.155 278.865 108.263 278.994 106.52 279.64C104.798 280.339 103.303 281.5 102.199 282.994C101.094 284.489 100.423 286.259 100.26 288.11C100.197 288.587 100.242 289.072 100.39 289.53C100.79 290.53 101.96 291.01 102.84 291.68C105.58 293.74 105.51 297.76 106.26 301.1C107.1 304.81 109.19 308.1 111.26 311.26C113.71 314.92 116.72 318.82 121.06 319.51C127.48 320.51 124.48 314.3 123.59 311.18C121.98 305.3 121.41 298.84 120.58 292.81Z" fill="url(#paint14_linear)"/>
<path d="M437.64 151.54C438.42 151.33 439.22 151.88 440.04 151.88C441.9 151.88 442.56 149.41 443.99 148.21C444.592 147.79 445.274 147.5 445.993 147.357C446.713 147.214 447.454 147.222 448.17 147.38C449.62 147.6 451.03 148.09 452.49 148.17C453.063 148.144 453.635 148.222 454.18 148.4C455.62 149.03 455.62 151.04 455.4 152.59C454.98 155.44 454.5 158.44 452.67 160.66C450.4 163.43 446.39 164.53 444.67 167.66C444.398 168.292 444.027 168.876 443.57 169.39C443.095 169.726 442.543 169.938 441.966 170.008C441.388 170.078 440.802 170.003 440.26 169.79C437.09 168.9 433.26 165.4 433.73 161.79C434.02 159.79 435.55 158.18 436.04 156.25C436.33 154.96 435.95 152 437.64 151.54Z" fill="url(#paint15_linear)"/>
<path d="M430.9 161.32C432.19 163.97 434.41 166.03 436.58 168.03L444.05 174.9C438.05 180.24 433.05 186.74 426.82 191.83C418.82 198.34 409.03 202.21 399.43 205.98C399.53 213.7 399.43 221.14 399.5 228.86C399.658 232.581 399.483 236.309 398.98 240C398.13 245.15 395.98 250 394.49 255C392.647 261.051 391.684 267.335 391.63 273.66C382.223 274.467 372.793 274.907 363.34 274.98C357.78 274.98 351.76 274.77 347.4 271.31C353.73 259.75 360.19 247.82 361.73 234.73C363.32 221.23 359.56 207.39 362.16 194.05C362.83 190.57 364.1 186.95 366.96 184.87C371.23 181.76 377.12 183.22 382.29 184.26C388.543 185.497 394.93 185.914 401.29 185.5C403.38 185.468 405.443 185.023 407.36 184.19C409.73 183 411.43 180.84 413.13 178.81C418.51 172.42 424.15 166.13 430.9 161.32Z" fill="#6524BB"/>
<path d="M430.9 161.32C432.19 163.97 434.41 166.03 436.58 168.03L444.05 174.9C438.05 180.24 433.05 186.74 426.82 191.83C418.82 198.34 409.03 202.21 399.43 205.98C399.53 213.7 399.43 221.14 399.5 228.86C399.658 232.581 399.483 236.309 398.98 240C398.13 245.15 395.98 250 394.49 255C392.647 261.051 391.684 267.335 391.63 273.66C382.223 274.467 372.793 274.907 363.34 274.98C357.78 274.98 351.76 274.77 347.4 271.31C353.73 259.75 360.19 247.82 361.73 234.73C363.32 221.23 359.56 207.39 362.16 194.05C362.83 190.57 364.1 186.95 366.96 184.87C371.23 181.76 377.12 183.22 382.29 184.26C388.543 185.497 394.93 185.914 401.29 185.5C403.38 185.468 405.443 185.023 407.36 184.19C409.73 183 411.43 180.84 413.13 178.81C418.51 172.42 424.15 166.13 430.9 161.32Z" fill="url(#paint16_linear)"/>
<path d="M361.43 211.3C363.869 211.121 366.207 210.253 368.17 208.796C370.134 207.338 371.643 205.352 372.52 203.07C373.34 200.82 373.52 198.3 374.88 196.32C376.12 194.5 378.14 193.4 380.08 192.37C382.37 191.075 384.761 189.969 387.23 189.06C388.647 188.685 390.019 188.155 391.32 187.48C391.453 187.416 391.571 187.327 391.669 187.217C391.767 187.107 391.842 186.979 391.89 186.84C391.897 186.66 391.855 186.481 391.769 186.322C391.683 186.164 391.555 186.032 391.4 185.94C390.366 185.263 389.181 184.851 387.95 184.74C384.39 184.14 380.72 183.54 377.21 184.36C374.266 185.217 371.502 186.599 369.05 188.44C366.896 189.693 365.04 191.399 363.61 193.44C361.93 196.21 361.86 199.56 361.24 202.65C361.05 203.58 360.81 211.33 361.43 211.3Z" fill="url(#paint17_linear)"/>
<path d="M347.93 185.48C347.233 185.725 346.66 186.235 346.336 186.9C346.012 187.564 345.963 188.33 346.2 189.03C347.167 195.528 349.363 201.783 352.67 207.46C352.744 207.666 352.857 207.855 353.005 208.017C353.152 208.179 353.329 208.31 353.527 208.403C353.725 208.496 353.939 208.548 354.158 208.558C354.376 208.568 354.594 208.535 354.8 208.46C358.103 207.914 361.141 206.314 363.46 203.9C365.38 201.9 366.64 199.31 368.25 197.01C371.262 192.858 375.296 189.555 379.96 187.42C384.53 185.17 384.62 181.73 379.53 179.53C370.33 175.57 355.93 180.74 347.93 185.48Z" fill="#6524BB"/>
<path d="M347.93 185.48C347.233 185.725 346.66 186.235 346.336 186.9C346.012 187.564 345.963 188.33 346.2 189.03C347.167 195.528 349.363 201.783 352.67 207.46C352.744 207.666 352.857 207.855 353.005 208.017C353.152 208.179 353.329 208.31 353.527 208.403C353.725 208.496 353.939 208.548 354.158 208.558C354.376 208.568 354.594 208.535 354.8 208.46C358.103 207.914 361.141 206.314 363.46 203.9C365.38 201.9 366.64 199.31 368.25 197.01C371.262 192.858 375.296 189.555 379.96 187.42C384.53 185.17 384.62 181.73 379.53 179.53C370.33 175.57 355.93 180.74 347.93 185.48Z" fill="url(#paint18_linear)"/>
<path d="M495.1 302.76C493.991 312.249 492.25 321.653 489.89 330.91C484.521 350.407 474.548 368.33 460.81 383.17C445.61 393.17 420.94 403.49 382.99 405.65C313.63 409.65 190.26 410.03 129.17 394.06C121.17 385.06 115.38 374.16 110.17 363.23C103.36 349.02 100.5 343.14 97.1699 333.78C114.33 344.4 175.07 375.34 290.25 366.17C428.62 355.17 459.52 347.96 485.99 309.93L495.1 302.76Z" fill="url(#paint19_linear)"/>
<path opacity="0.53" d="M588.54 458.32C566.41 473.79 539.12 483.86 512.54 488.99C426.05 505.67 336.68 486.91 248.75 492.91C211.75 495.41 174.75 502.38 137.75 499.8C119.35 498.51 91.2701 488.8 66.7501 473.25C44.2401 458.91 24.6601 439.68 18.3101 417.36C17.7301 415.2 17.2201 413.01 16.8601 410.82C16.8601 410.82 60.9601 388.57 105.61 384.54C121.82 383.05 138.08 383.99 152.33 389.24C154.88 390.18 157.46 391.12 160.05 392.1C199.21 406.63 240.69 422.41 280.36 410.66C297 405.73 311.93 396.17 328.18 389.98C343.896 384.075 360.623 381.325 377.403 381.89C394.182 382.455 410.686 386.322 425.97 393.27C434.31 397.11 442.58 401.97 451.74 402.48C468.86 403.42 482.6 389.48 497.56 381.17C499.25 380.23 500.97 379.37 502.69 378.59C519.81 370.64 538.37 369.59 557.25 372.44C582.04 376.2 607.34 386.77 630.33 397.66C631.19 398.09 609.81 443.56 588.54 458.32Z" fill="#6524BB"/>
<path opacity="0.53" d="M630.33 397.66C631.19 398.09 609.77 443.56 588.54 458.32C547.97 467.96 505.54 466.67 463.69 467.06C333.69 468.43 203.36 487.3 74.0001 474.06C71.6201 473.82 69.1901 473.55 66.7601 473.28C44.2401 458.91 24.6601 439.68 18.3101 417.36C16.0043 414.357 14.0107 411.127 12.3601 407.72C5.51011 393.66 1.94011 376.47 0.610107 358.72C13.9572 354.365 28.1996 353.515 41.9701 356.25C64.6101 360.87 84.6201 374.93 105.61 384.57C117.12 389.86 128.91 393.77 141.61 394.09C147.818 394.168 154.013 393.497 160.06 392.09C174.59 388.92 188.69 382.45 202.83 377.4C260.04 356.96 322.47 358.8 383.21 360.91C421.83 362.24 461.15 363.73 497.57 376.7L502.7 378.58C513.59 382.58 524.83 386.68 536.07 384.33C544.26 382.65 550.91 377.95 557.26 372.43C564.15 366.36 570.61 359.43 578.13 354.29C593.13 344.15 624.7 338.79 638.92 353.79C641.325 356.444 643.345 359.424 644.92 362.64C642 375.14 637.46 387.16 630.33 397.66Z" fill="#6524BB"/>
<path d="M192.93 270.58C192.322 270.424 191.689 270.397 191.07 270.5C190.762 270.559 190.475 270.7 190.239 270.907C190.004 271.115 189.828 271.382 189.73 271.68C189.5 272.68 190.35 273.48 191.11 274.09L192.88 275.53C193.342 275.961 193.882 276.3 194.47 276.53C194.764 276.641 195.084 276.666 195.392 276.602C195.7 276.539 195.984 276.389 196.21 276.17C196.453 275.866 196.603 275.498 196.64 275.11C196.741 274.498 196.703 273.872 196.53 273.277C196.357 272.681 196.053 272.132 195.64 271.67C195.216 271.218 194.664 270.907 194.059 270.776C193.453 270.646 192.822 270.703 192.25 270.94" fill="#6524BB"/>
<path d="M192.93 270.58C192.322 270.424 191.689 270.397 191.07 270.5C190.762 270.559 190.475 270.7 190.239 270.907C190.004 271.115 189.828 271.382 189.73 271.68C189.5 272.68 190.35 273.48 191.11 274.09L192.88 275.53C193.342 275.961 193.882 276.3 194.47 276.53C194.764 276.641 195.084 276.666 195.392 276.602C195.7 276.539 195.984 276.389 196.21 276.17C196.453 275.866 196.603 275.498 196.64 275.11C196.741 274.498 196.703 273.872 196.53 273.277C196.357 272.681 196.053 272.132 195.64 271.67C195.216 271.218 194.664 270.907 194.059 270.776C193.453 270.646 192.822 270.703 192.25 270.94" fill="url(#paint20_linear)"/>
<path d="M180.91 271.33C181.788 271.33 182.5 270.618 182.5 269.74C182.5 268.862 181.788 268.15 180.91 268.15C180.032 268.15 179.32 268.862 179.32 269.74C179.32 270.618 180.032 271.33 180.91 271.33Z" fill="url(#paint21_linear)"/>
<path d="M151.02 308.03C150.985 310.16 151.214 312.286 151.7 314.36C152.2 316.23 153.09 317.99 153.7 319.85C154.31 321.71 154.55 323.72 155.11 325.63C155.92 328.37 156.2 331 161.4 333.35C152.2 331.04 150.97 331.57 151.12 325.14C151.23 319.43 151.14 313.74 151.02 308.03Z" fill="url(#paint22_linear)"/>
<path d="M247.143 295.143C247.143 297.19 246.119 301.286 244.071 307.429C242.024 313.571 241 317.667 241 319.714C241 323.874 241.624 327.809 242.872 331.52C244.119 335.231 245.943 338.287 248.343 340.686C250.742 343.086 253.414 344.286 256.357 344.286H299.357C300.189 344.286 300.909 343.982 301.517 343.374C302.125 342.766 302.429 342.046 302.429 341.214C302.429 340.382 302.125 339.663 301.517 339.055C300.909 338.447 300.189 338.143 299.357 338.143C298.461 338.143 297.725 337.855 297.15 337.279C296.574 336.703 296.286 335.967 296.286 335.071C296.286 333.408 296.926 331.472 298.205 329.265C299.485 327.057 301.021 324.785 302.813 322.45C304.604 320.114 306.396 317.699 308.188 315.203C309.979 312.708 311.515 309.956 312.795 306.949C314.074 303.941 314.714 301.03 314.714 298.214C314.714 293.415 312.795 289.448 308.955 286.313C309.723 284.009 311.643 282.857 314.714 282.857C316.57 282.857 318.506 282.201 320.521 280.89C322.537 279.578 324.121 278.202 325.272 276.762C326.424 275.323 327 274.283 327 273.643C327 272.811 326.696 272.091 326.088 271.483C325.48 270.875 324.76 270.571 323.929 270.571C323.417 270.571 322.873 270.124 322.297 269.228C321.721 268.332 321.065 267.212 320.329 265.868C319.593 264.525 318.746 263.165 317.786 261.789C316.826 260.413 315.546 259.134 313.946 257.95C312.347 256.766 310.555 255.95 308.571 255.502V246C307.1 246 305.372 247.136 303.388 249.407C301.405 251.679 300.125 254.031 299.549 256.462C296.478 257.742 294.142 259.965 292.542 263.133C290.943 266.3 290.143 269.804 290.143 273.643C290.143 275.499 289.743 277.258 288.943 278.922C288.143 280.586 287.007 282.073 285.536 283.385C284.064 284.697 282.864 285.689 281.936 286.36C281.009 287.032 279.841 287.784 278.433 288.616C278.177 288.808 277.985 288.936 277.857 289C274.146 291.112 271.074 293.159 268.643 295.143C264.228 298.79 260.564 303.365 257.653 308.868C254.741 314.371 253.286 319.01 253.286 322.786C253.286 323.042 253.254 323.33 253.19 323.65C253.126 323.969 252.838 324.417 252.326 324.993C251.814 325.569 251.11 325.857 250.214 325.857C249.318 325.857 248.583 325.361 248.007 324.369C247.431 323.378 247.143 321.826 247.143 319.714C247.143 317.475 247.559 315.235 248.391 312.996C249.222 310.756 250.246 308.628 251.462 306.613C252.678 304.597 253.894 302.501 255.109 300.326C256.325 298.15 257.349 295.543 258.181 292.503C259.013 289.464 259.429 286.249 259.429 282.857C259.429 279.786 258.149 276.97 255.589 274.411C253.03 271.851 250.214 270.571 247.143 270.571C245.415 270.571 243.959 271.163 242.776 272.347C241.592 273.531 241 274.987 241 276.714C241 277.738 241.192 278.65 241.576 279.45C241.96 280.25 242.456 280.985 243.064 281.657C243.672 282.329 244.007 282.729 244.071 282.857C246.119 286.249 247.143 290.344 247.143 295.143Z" fill="black"/>
</g>
<defs>
<linearGradient id="paint0_linear" x1="164.76" y1="312.3" x2="186.55" y2="312.3" gradientUnits="userSpaceOnUse">
<stop stop-color="white" stop-opacity="0"/>
<stop offset="0.95" stop-color="white"/>
</linearGradient>
<linearGradient id="paint1_linear" x1="373.24" y1="169.34" x2="402.16" y2="169.34" gradientUnits="userSpaceOnUse">
<stop stop-color="#E5C6D6"/>
<stop offset="0.42" stop-color="#EAD4D0"/>
<stop offset="1" stop-color="#F0E9CB"/>
</linearGradient>
<linearGradient id="paint2_linear" x1="358.96" y1="159.13" x2="400.29" y2="159.13" gradientUnits="userSpaceOnUse">
<stop stop-color="#010101" stop-opacity="0"/>
<stop offset="0.95" stop-color="#010101"/>
</linearGradient>
<linearGradient id="paint3_linear" x1="29707.7" y1="23400.7" x2="26248" y2="20233.1" gradientUnits="userSpaceOnUse">
<stop stop-color="#010101" stop-opacity="0"/>
<stop offset="0.95" stop-color="#010101"/>
</linearGradient>
<linearGradient id="paint4_linear" x1="17431.7" y1="16069.2" x2="17478.4" y2="13125.5" gradientUnits="userSpaceOnUse">
<stop stop-color="white" stop-opacity="0"/>
<stop offset="0.95" stop-color="white"/>
</linearGradient>
<linearGradient id="paint5_linear" x1="14233.8" y1="15948" x2="15595.4" y2="15948" gradientUnits="userSpaceOnUse">
<stop stop-color="white" stop-opacity="0"/>
<stop offset="0.95" stop-color="white"/>
</linearGradient>
<linearGradient id="paint6_linear" x1="13499.2" y1="4792.79" x2="14548.9" y2="4792.79" gradientUnits="userSpaceOnUse">
<stop stop-color="#010101" stop-opacity="0"/>
<stop offset="0.95" stop-color="#010101"/>
</linearGradient>
<linearGradient id="paint7_linear" x1="7480.48" y1="4014.75" x2="7750.75" y2="4014.75" gradientUnits="userSpaceOnUse">
<stop stop-color="#E5C6D6"/>
<stop offset="0.42" stop-color="#EAD4D0"/>
<stop offset="1" stop-color="#F0E9CB"/>
</linearGradient>
<linearGradient id="paint8_linear" x1="5520.9" y1="770.137" x2="5521.79" y2="795.338" gradientUnits="userSpaceOnUse">
<stop stop-color="#010101" stop-opacity="0"/>
<stop offset="0.95" stop-color="#010101"/>
</linearGradient>
<linearGradient id="paint9_linear" x1="9988.44" y1="1508.18" x2="9988.93" y2="1600.32" gradientUnits="userSpaceOnUse">
<stop stop-color="#010101" stop-opacity="0"/>
<stop offset="0.95" stop-color="#010101"/>
</linearGradient>
<linearGradient id="paint10_linear" x1="27951.2" y1="2484.92" x2="27952.9" y2="2992.13" gradientUnits="userSpaceOnUse">
<stop stop-color="#010101" stop-opacity="0"/>
<stop offset="0.95" stop-color="#010101"/>
</linearGradient>
<linearGradient id="paint11_linear" x1="128981" y1="67895.8" x2="129584" y2="101645" gradientUnits="userSpaceOnUse">
<stop stop-color="#010101" stop-opacity="0"/>
<stop offset="0.95" stop-color="#010101"/>
</linearGradient>
<linearGradient id="paint12_linear" x1="12181.8" y1="29788" x2="13616.8" y2="24567" gradientUnits="userSpaceOnUse">
<stop stop-color="white" stop-opacity="0"/>
<stop offset="0.95" stop-color="white"/>
</linearGradient>
<linearGradient id="paint13_linear" x1="3705.04" y1="12005.8" x2="4235.28" y2="12005.8" gradientUnits="userSpaceOnUse">
<stop stop-color="#181616" stop-opacity="0.44"/>
<stop offset="0.95" stop-color="#010101"/>
</linearGradient>
<linearGradient id="paint14_linear" x1="3818.77" y1="12732.6" x2="3039.66" y2="12513.1" gradientUnits="userSpaceOnUse">
<stop stop-color="white" stop-opacity="0"/>
<stop offset="0.95" stop-color="white"/>
</linearGradient>
<linearGradient id="paint15_linear" x1="10269.1" y1="3763.01" x2="10745.9" y2="3763.01" gradientUnits="userSpaceOnUse">
<stop stop-color="#E5C6D6"/>
<stop offset="0.42" stop-color="#EAD4D0"/>
<stop offset="1" stop-color="#F0E9CB"/>
</linearGradient>
<linearGradient id="paint16_linear" x1="41860.5" y1="27438.6" x2="32845" y2="19631.7" gradientUnits="userSpaceOnUse">
<stop stop-color="white" stop-opacity="0"/>
<stop offset="0.95" stop-color="white"/>
</linearGradient>
<linearGradient id="paint17_linear" x1="12606.2" y1="5818.49" x2="11856" y2="3818.77" gradientUnits="userSpaceOnUse">
<stop stop-color="#010101" stop-opacity="0"/>
<stop offset="0.95" stop-color="#010101"/>
</linearGradient>
<linearGradient id="paint18_linear" x1="14730.8" y1="6274.44" x2="14597.8" y2="5648.44" gradientUnits="userSpaceOnUse">
<stop stop-color="white" stop-opacity="0"/>
<stop offset="0.95" stop-color="white"/>
</linearGradient>
<linearGradient id="paint19_linear" x1="124422" y1="32237.5" x2="125284" y2="89260.7" gradientUnits="userSpaceOnUse">
<stop stop-color="#010101" stop-opacity="0"/>
<stop offset="0.95" stop-color="#010101"/>
</linearGradient>
<linearGradient id="paint20_linear" x1="1659.39" y1="1944.09" x2="1668.49" y2="2004.82" gradientUnits="userSpaceOnUse">
<stop stop-color="#8B75A8"/>
<stop offset="0.364583" stop-color="#635477" stop-opacity="0.42716"/>
<stop offset="0.723958" stop-color="#0C0A0E" stop-opacity="0.31"/>
<stop offset="0.96875" stop-color="#010101"/>
</linearGradient>
<linearGradient id="paint21_linear" x1="753.69" y1="1120.52" x2="756.171" y2="1135.14" gradientUnits="userSpaceOnUse">
<stop stop-color="#010101" stop-opacity="0.49"/>
<stop offset="0.95" stop-color="#010101"/>
</linearGradient>
<linearGradient id="paint22_linear" x1="2045.58" y1="8233.95" x2="239.409" y2="8866.72" gradientUnits="userSpaceOnUse">
<stop stop-color="#010101" stop-opacity="0"/>
<stop offset="0.95" stop-color="#010101"/>
</linearGradient>
<clipPath id="clip0">
<rect width="650.68" height="500.37" fill="white"/>
</clipPath>
</defs>
</svg>
