<svg width="250" height="106" viewBox="0 0 250 106" fill="none" xmlns="http://www.w3.org/2000/svg">
<g clip-path="url(#clip0)">
<path d="M76.8353 24.4878C77.3612 22.9391 78.3594 21.5943 79.6896 20.6426C81.0198 19.6909 82.6149 19.1803 84.2505 19.1827H90.5314V0.594803L93.171 0.971885C99.1587 1.82722 103.823 4.86151 107.033 9.99063C109.347 13.6879 110.422 17.7664 110.922 20.8169C114.368 23.4687 117.367 27.12 119.845 31.6856C121.933 35.5328 123.662 40.0418 124.983 45.0879C127.216 53.6138 127.518 60.6858 127.529 60.9827L127.531 69.1673H122.906V61.1262C122.849 59.9366 121.392 33.9038 107.437 23.9909L106.619 23.4098L106.484 22.4153C105.789 17.2662 103.384 8.76168 95.1564 6.14755V23.8077H84.2505C83.5818 23.8057 82.9293 24.0134 82.3848 24.4016C81.8404 24.7899 81.4314 25.339 81.2153 25.9719C79.3716 31.4143 76.2034 38.2248 71.266 41.4253L72.7509 46.9938C73.2677 48.9797 74.4434 50.7313 76.0855 51.9619C77.7276 53.1925 79.7387 53.8293 81.7898 53.768C85.9333 53.6437 90.2458 54.1842 94.6082 55.3739L96.3126 55.8385V69.1673H91.6876V59.4069C88.4916 58.6518 85.2119 58.3103 81.9289 58.3908C78.8371 58.476 75.8072 57.5145 73.3303 55.6622C70.8534 53.8098 69.0747 51.1752 68.2825 48.1855L65.8128 38.9238L67.6521 38.1355C71.0919 36.6613 74.3531 31.8144 76.8353 24.4878Z" fill="#702D72"/>
<path d="M187.752 20.039L179.212 7.7033C178.579 6.79093 177.738 6.04253 176.758 5.52012C175.778 4.99771 174.688 4.71633 173.578 4.69929L157.372 4.4668H157.338C148.972 4.4668 142.552 5.86628 138.418 12.6963C134.568 19.0539 132.926 29.8838 132.926 48.9078V51.2328H138.238L134.819 68.67H139.557L142.977 51.2328H144.551C148.348 51.2667 152.006 49.8056 154.736 47.1652C157.203 44.8045 158.982 41.5749 159.882 37.8256L159.891 37.7918L163.878 18.6832H159.128L155.353 36.7726C154.203 41.5214 150.765 46.5828 144.551 46.5828H137.585C137.711 30.1241 139.21 20.3661 142.395 15.1037C145.069 10.6862 148.977 9.11818 157.322 9.116L173.511 9.3485C173.881 9.35413 174.245 9.4479 174.571 9.62205C174.898 9.79619 175.178 10.0457 175.389 10.3498L185.049 24.3024L198.025 26.4652V28.9295L195.861 40.4702C195.223 43.8764 194.131 45.5923 189.654 46.13L171.3 49.2701L171.179 68.67H175.829L175.926 53.1955L190.268 50.7397C193.517 50.3403 195.914 49.2932 197.596 47.5396C199.033 46.0402 199.907 44.1248 200.432 41.3272L202.675 29.3617V22.5261L187.752 20.039Z" fill="#702D72"/>
<path d="M140.479 103V84.2901H143.905V99.5487H159.163V103H140.479ZM160.572 103V87.949H163.972V103H160.572ZM160.572 86.4439V83.0185H163.972V86.4439H160.572ZM166.325 103V86.5996C166.325 85.6135 166.671 84.7745 167.363 84.0825C168.073 83.3732 168.92 83.0185 169.906 83.0185H175.589V86.4439H170.633C170.149 86.4439 169.872 86.4785 169.803 86.5477C169.751 86.5996 169.725 86.8591 169.725 87.3262V87.949H175.589V91.3485H169.725V103H166.325ZM181.005 103C180.019 103 179.171 102.654 178.462 101.962C177.77 101.253 177.424 100.405 177.424 99.4189V91.5301C177.424 90.544 177.77 89.705 178.462 89.013C179.171 88.3037 180.019 87.949 181.005 87.949H189.127C190.113 87.949 190.952 88.3037 191.644 89.013C192.354 89.705 192.708 90.544 192.708 91.5301V97.1872H180.823V98.6923C180.823 99.1767 180.849 99.4535 180.901 99.5227C180.97 99.5746 181.247 99.6006 181.732 99.6006H192.708V103H181.005ZM180.823 94.1251H189.309V92.2567C189.309 91.7723 189.274 91.5042 189.205 91.4523C189.153 91.3831 188.885 91.3485 188.401 91.3485H181.732C181.247 91.3485 180.97 91.3831 180.901 91.4523C180.849 91.5042 180.823 91.7723 180.823 92.2567V94.1251ZM198.717 103C197.731 103 196.883 102.654 196.174 101.962C195.482 101.253 195.136 100.405 195.136 99.4189V98.848H198.535V99.0037C198.535 99.2805 198.561 99.4535 198.613 99.5227C198.682 99.5746 198.855 99.6006 199.132 99.6006H206.424C206.684 99.6006 206.848 99.5746 206.917 99.5227C206.986 99.4535 207.021 99.2805 207.021 99.0037V97.7841C207.021 97.5073 206.986 97.3429 206.917 97.291C206.848 97.2218 206.684 97.1872 206.424 97.1872H198.717C197.731 97.1872 196.883 96.8326 196.174 96.1233C195.482 95.414 195.136 94.5749 195.136 93.6061V91.5301C195.136 90.544 195.482 89.705 196.174 89.013C196.883 88.3037 197.731 87.949 198.717 87.949H206.839C207.825 87.949 208.673 88.3037 209.382 89.013C210.092 89.705 210.446 90.544 210.446 91.5301V92.101H207.021V91.9453C207.021 91.6685 206.986 91.5042 206.917 91.4523C206.848 91.3831 206.684 91.3485 206.424 91.3485H199.132C198.855 91.3485 198.682 91.3831 198.613 91.4523C198.561 91.5042 198.535 91.6685 198.535 91.9453V93.165C198.535 93.4418 198.561 93.6148 198.613 93.684C198.682 93.7359 198.855 93.7618 199.132 93.7618H206.839C207.825 93.7618 208.673 94.1165 209.382 94.8258C210.092 95.5351 210.446 96.3741 210.446 97.3429V99.4189C210.446 100.405 210.092 101.253 209.382 101.962C208.673 102.654 207.825 103 206.839 103H198.717Z" fill="#41414D"/>
<path d="M99.2547 79C98.8183 79 98.4466 78.8465 98.1395 78.5394C97.8324 78.2323 97.6788 77.8605 97.6788 77.4241V71.848C97.6788 71.4117 97.8324 71.0399 98.1395 70.7328C98.4466 70.4257 98.8183 70.2722 99.2547 70.2722H106.382V71.5814H99.4365C99.2587 71.5814 99.1375 71.6137 99.0729 71.6783C99.0163 71.7349 98.988 71.8521 98.988 72.0299V77.2423C98.988 77.4201 99.0163 77.5413 99.0729 77.606C99.1375 77.6625 99.2587 77.6908 99.4365 77.6908H106.382V79H99.2547ZM109.174 79C108.737 79 108.366 78.8465 108.058 78.5394C107.751 78.2323 107.598 77.8605 107.598 77.4241V74.83H113.428V73.727C113.428 73.5492 113.4 73.432 113.344 73.3754C113.287 73.3108 113.17 73.2784 112.992 73.2784H107.598V71.9693H113.174C113.61 71.9693 113.982 72.1228 114.289 72.4299C114.596 72.737 114.75 73.1087 114.75 73.5451V79H109.174ZM109.355 77.6908H113.428V76.0544H108.907V77.2423C108.907 77.4201 108.935 77.5413 108.992 77.606C109.056 77.6625 109.178 77.6908 109.355 77.6908ZM117.602 79C117.166 79 116.794 78.8465 116.487 78.5394C116.18 78.2323 116.027 77.8605 116.027 77.4241V69.751H117.336V71.9693H120.221V73.2784H117.336V77.2423C117.336 77.4201 117.364 77.5413 117.421 77.606C117.485 77.6625 117.607 77.6908 117.784 77.6908H120.221V79H117.602ZM122.739 79C122.302 79 121.931 78.8465 121.623 78.5394C121.316 78.2323 121.163 77.8605 121.163 77.4241V77.2423H122.472V77.315C122.472 77.4443 122.5 77.5413 122.557 77.606C122.622 77.6625 122.718 77.6908 122.848 77.6908H126.63C126.759 77.6908 126.852 77.6625 126.909 77.606C126.965 77.5413 126.993 77.4443 126.993 77.315V76.515C126.993 76.3857 126.965 76.2928 126.909 76.2362C126.852 76.1715 126.759 76.1392 126.63 76.1392H122.739C122.302 76.1392 121.931 75.9857 121.623 75.6786C121.316 75.3715 121.163 74.9998 121.163 74.5634V73.5451C121.163 73.1087 121.316 72.737 121.623 72.4299C121.931 72.1228 122.302 71.9693 122.739 71.9693H126.739C127.175 71.9693 127.547 72.1228 127.854 72.4299C128.161 72.737 128.315 73.1087 128.315 73.5451V73.727H126.993V73.6542C126.993 73.5249 126.965 73.432 126.909 73.3754C126.852 73.3108 126.759 73.2784 126.63 73.2784H122.848C122.718 73.2784 122.622 73.3108 122.557 73.3754C122.5 73.432 122.472 73.5249 122.472 73.6542V74.4543C122.472 74.5836 122.5 74.6805 122.557 74.7452C122.622 74.8018 122.718 74.83 122.848 74.83H126.739C127.175 74.83 127.547 74.9836 127.854 75.2907C128.161 75.5978 128.315 75.9695 128.315 76.4059V77.4241C128.315 77.8605 128.161 78.2323 127.854 78.5394C127.547 78.8465 127.175 79 126.739 79H122.739ZM133.11 79V70.2722H140.25C140.686 70.2722 141.058 70.4257 141.365 70.7328C141.68 71.0399 141.838 71.4117 141.838 71.848V77.4241C141.838 77.8605 141.68 78.2323 141.365 78.5394C141.058 78.8465 140.686 79 140.25 79H133.11ZM134.868 77.6908H140.068C140.246 77.6908 140.363 77.6625 140.42 77.606C140.484 77.5413 140.517 77.4201 140.517 77.2423V72.0299C140.517 71.8521 140.484 71.7349 140.42 71.6783C140.363 71.6137 140.246 71.5814 140.068 71.5814H134.868C134.69 71.5814 134.569 71.6137 134.504 71.6783C134.448 71.7349 134.419 71.8521 134.419 72.0299V77.2423C134.419 77.4201 134.448 77.5413 134.504 77.606C134.569 77.6625 134.69 77.6908 134.868 77.6908ZM144.711 79C144.274 79 143.902 78.8465 143.595 78.5394C143.288 78.2323 143.135 77.8605 143.135 77.4241V73.5451C143.135 73.1087 143.288 72.737 143.595 72.4299C143.902 72.1228 144.274 71.9693 144.711 71.9693H148.711C149.147 71.9693 149.519 72.1228 149.826 72.4299C150.133 72.737 150.287 73.1087 150.287 73.5451V77.4241C150.287 77.8605 150.133 78.2323 149.826 78.5394C149.519 78.8465 149.147 79 148.711 79H144.711ZM144.892 77.6908H148.529C148.707 77.6908 148.824 77.6625 148.881 77.606C148.937 77.5413 148.965 77.4201 148.965 77.2423V73.727C148.965 73.5492 148.937 73.432 148.881 73.3754C148.824 73.3108 148.707 73.2784 148.529 73.2784H144.892C144.715 73.2784 144.593 73.3108 144.529 73.3754C144.472 73.432 144.444 73.5492 144.444 73.727V77.2423C144.444 77.4201 144.472 77.5413 144.529 77.606C144.593 77.6625 144.715 77.6908 144.892 77.6908ZM152.643 81.7759V80.4546H156.801C156.979 80.4546 157.096 80.4223 157.152 80.3577C157.217 80.3011 157.249 80.1839 157.249 80.0061V79H152.982C152.546 79 152.174 78.8465 151.867 78.5394C151.56 78.2323 151.407 77.8605 151.407 77.4241V73.5451C151.407 73.1087 151.56 72.737 151.867 72.4299C152.174 72.1228 152.546 71.9693 152.982 71.9693H156.983C157.419 71.9693 157.791 72.1228 158.098 72.4299C158.405 72.737 158.558 73.1087 158.558 73.5451V80.2001C158.558 80.6365 158.405 81.0082 158.098 81.3153C157.791 81.6224 157.419 81.7759 156.983 81.7759H152.643ZM153.164 77.6908H156.801C156.979 77.6908 157.096 77.6625 157.152 77.606C157.217 77.5413 157.249 77.4201 157.249 77.2423V73.727C157.249 73.5492 157.217 73.432 157.152 73.3754C157.096 73.3108 156.979 73.2784 156.801 73.2784H153.164C152.986 73.2784 152.865 73.3108 152.801 73.3754C152.744 73.432 152.716 73.5492 152.716 73.727V77.2423C152.716 77.4201 152.744 77.5413 152.801 77.606C152.865 77.6625 152.986 77.6908 153.164 77.6908ZM161.081 79C160.645 79 160.273 78.8465 159.966 78.5394C159.659 78.2323 159.506 77.8605 159.506 77.4241V77.2423H160.815V77.315C160.815 77.4443 160.843 77.5413 160.9 77.606C160.964 77.6625 161.061 77.6908 161.191 77.6908H164.973C165.102 77.6908 165.195 77.6625 165.251 77.606C165.308 77.5413 165.336 77.4443 165.336 77.315V76.515C165.336 76.3857 165.308 76.2928 165.251 76.2362C165.195 76.1715 165.102 76.1392 164.973 76.1392H161.081C160.645 76.1392 160.273 75.9857 159.966 75.6786C159.659 75.3715 159.506 74.9998 159.506 74.5634V73.5451C159.506 73.1087 159.659 72.737 159.966 72.4299C160.273 72.1228 160.645 71.9693 161.081 71.9693H165.082C165.518 71.9693 165.89 72.1228 166.197 72.4299C166.504 72.737 166.658 73.1087 166.658 73.5451V73.727H165.336V73.6542C165.336 73.5249 165.308 73.432 165.251 73.3754C165.195 73.3108 165.102 73.2784 164.973 73.2784H161.191C161.061 73.2784 160.964 73.3108 160.9 73.3754C160.843 73.432 160.815 73.5249 160.815 73.6542V74.4543C160.815 74.5836 160.843 74.6805 160.9 74.7452C160.964 74.8018 161.061 74.83 161.191 74.83H165.082C165.518 74.83 165.89 74.9836 166.197 75.2907C166.504 75.5978 166.658 75.9695 166.658 76.4059V77.4241C166.658 77.8605 166.504 78.2323 166.197 78.5394C165.89 78.8465 165.518 79 165.082 79H161.081Z" fill="#41414D"/>
<path d="M62.7355 102.787C61.7983 102.787 60.9926 102.449 60.3184 101.775C59.6443 101.101 59.3072 100.295 59.3072 99.3582V98.0017H62.5629V98.6429C62.5629 99.1033 62.5875 99.3664 62.6369 99.4322C62.7026 99.4815 62.9657 99.5062 63.4261 99.5062H72.9218C73.3822 99.5062 73.6371 99.4815 73.6864 99.4322C73.7522 99.3664 73.7851 99.1033 73.7851 98.6429V96.3985C73.7851 95.9381 73.7522 95.6832 73.6864 95.6339C73.6371 95.5681 73.3822 95.5353 72.9218 95.5353H62.7355C61.7983 95.5353 60.9926 95.1982 60.3184 94.524C59.6443 93.8499 59.3072 93.0442 59.3072 92.1069V88.4566C59.3072 87.5194 59.6443 86.7137 60.3184 86.0396C60.9926 85.3654 61.7983 85.0283 62.7355 85.0283H73.6371C74.5743 85.0283 75.38 85.3654 76.0542 86.0396C76.7283 86.7137 77.0654 87.5194 77.0654 88.4566V89.8132H73.7851V89.1719C73.7851 88.7115 73.7522 88.4566 73.6864 88.4073C73.6371 88.3415 73.3822 88.3087 72.9218 88.3087H63.4261C62.9657 88.3087 62.7026 88.3415 62.6369 88.4073C62.5875 88.4566 62.5629 88.7115 62.5629 89.1719V91.4163C62.5629 91.8767 62.5875 92.1316 62.6369 92.1809C62.7026 92.2303 62.9657 92.2549 63.4261 92.2549H73.6371C74.5743 92.2549 75.38 92.6002 76.0542 93.2908C76.7283 93.965 77.0654 94.7707 77.0654 95.7079V99.3582C77.0654 100.295 76.7283 101.101 76.0542 101.775C75.38 102.449 74.5743 102.787 73.6371 102.787H62.7355ZM83.063 102.787C82.1258 102.787 81.3201 102.458 80.6459 101.8C79.9882 101.126 79.6594 100.32 79.6594 99.3829V94.0061H90.9556V92.5756C90.9556 92.1152 90.9227 91.8603 90.8569 91.811C90.8076 91.7452 90.5527 91.7123 90.0923 91.7123H79.6594V88.4813H90.7829C91.7201 88.4813 92.5176 88.8184 93.1753 89.4925C93.8495 90.1502 94.1866 90.9477 94.1866 91.885V102.787H83.063ZM83.7536 99.5555H90.9556V96.9164H82.8904V98.6923C82.8904 99.1527 82.915 99.4157 82.9644 99.4815C83.0301 99.5308 83.2932 99.5555 83.7536 99.5555ZM103.069 102.787L95.2011 88.4813H98.9254L104.573 98.8649L110.197 88.4813H113.921L106.029 102.787H103.069ZM118.084 102.787C117.146 102.787 116.341 102.458 115.667 101.8C115.009 101.126 114.68 100.32 114.68 99.3829V91.885C114.68 90.9477 115.009 90.1502 115.667 89.4925C116.341 88.8184 117.146 88.4813 118.084 88.4813H125.804C126.741 88.4813 127.538 88.8184 128.196 89.4925C128.87 90.1502 129.207 90.9477 129.207 91.885V97.2617H117.911V98.6923C117.911 99.1527 117.936 99.4157 117.985 99.4815C118.051 99.5308 118.314 99.5555 118.774 99.5555H129.207V102.787H118.084ZM117.911 94.3514H125.976V92.5756C125.976 92.1152 125.943 91.8603 125.877 91.811C125.828 91.7452 125.573 91.7123 125.113 91.7123H118.774C118.314 91.7123 118.051 91.7452 117.985 91.811C117.936 91.8603 117.911 92.1152 117.911 92.5756V94.3514Z" fill="#41414D"/>
</g>
<defs>
<clipPath id="clip0">
<rect width="250" height="106" fill="white"/>
</clipPath>
</defs>
</svg>
